<?xml version="1.0" standalone="no"?>
<!DOCTYPE svg PUBLIC "-//W3C//DTD SVG 20010904//EN"
 "http://www.w3.org/TR/2001/REC-SVG-20010904/DTD/svg10.dtd">
<svg version="1.0" xmlns="http://www.w3.org/2000/svg"
 width="500.000000pt" height="500.000000pt" viewBox="0 0 500.000000 500.000000"
 preserveAspectRatio="xMidYMid meet">

<g transform="translate(0.000000,500.000000) scale(0.100000,-0.100000)"
fill="#000000" stroke="none">
<path d="M4210 3741 c-82 -42 -1210 -611 -1250 -631 -19 -10 -51 -25 -70 -34
-76 -36 -74 -32 -55 -147 18 -108 16 -118 -27 -119 -16 0 -25 18 -32 64 -3 20
-26 37 -38 30 -4 -3 -8 0 -8 6 0 6 -30 25 -67 42 -69 31 -130 47 -120 31 3 -5
-7 -7 -24 -5 -37 5 -37 -8 -1 -45 25 -25 29 -39 41 -138 10 -91 89 -750 226
-1875 14 -113 25 -211 25 -218 0 -12 89 31 129 62 7 6 42 27 77 46 79 44 288
165 417 242 55 32 101 58 103 58 2 0 40 23 84 50 44 28 82 50 85 50 2 0 34 18
70 40 36 22 67 40 70 40 3 0 29 16 59 35 30 19 58 35 61 35 3 0 22 11 43 23
20 13 57 35 82 49 112 63 110 61 111 98 1 19 3 55 4 80 1 25 5 164 9 310 3
146 8 292 11 325 3 33 7 166 10 295 3 129 8 287 10 350 13 323 28 880 23 880
-1 -1 -28 -13 -58 -29z"/>
<path d="M673 3639 c-12 -16 -13 -239 -1 -239 4 0 8 -8 8 -17 0 -14 -2 -15 -9
-5 -5 8 -8 -17 -8 -63 -1 -48 3 -72 8 -64 7 11 9 10 9 -3 0 -10 -4 -18 -10
-18 -5 0 -10 -12 -10 -26 0 -14 4 -23 8 -20 9 5 35 -64 27 -72 -2 -2 -7 7 -11
22 -13 53 -20 23 -17 -71 1 -54 4 -167 5 -252 1 -144 3 -153 18 -134 14 17 19
18 33 8 16 -11 16 -13 2 -19 -11 -4 -14 -13 -10 -28 5 -18 4 -20 -4 -8 -9 13
-11 13 -11 0 0 -9 6 -22 13 -30 10 -12 9 -12 -3 -3 -27 20 -36 0 -34 -72 1
-38 2 -119 3 -178 1 -64 5 -106 10 -102 5 3 12 1 15 -4 3 -5 0 -11 -8 -14 -8
-3 -13 -21 -13 -46 0 -23 4 -38 9 -35 6 4 5 -3 -1 -14 -6 -11 -11 -29 -11 -39
0 -15 2 -16 10 -3 12 19 13 5 1 -18 -12 -23 2 -108 17 -105 6 2 9 -4 5 -12 -4
-13 -8 -13 -21 -3 -13 11 -14 10 -8 -8 4 -12 7 -47 8 -78 1 -31 5 -59 10 -62
4 -3 3 -14 -2 -25 -13 -23 -11 -189 2 -206 5 -7 5 -13 -1 -17 -9 -6 -6 -114 5
-148 3 -10 1 -18 -4 -18 -5 0 -9 -6 -9 -14 0 -17 152 -80 168 -70 7 4 9 3 5
-4 -3 -6 9 -15 31 -23 34 -10 275 -106 328 -130 11 -4 56 -22 100 -39 44 -17
89 -35 100 -40 11 -5 79 -33 150 -61 72 -28 169 -66 217 -86 48 -19 93 -31 99
-27 7 4 9 3 6 -3 -5 -8 716 -303 742 -303 5 0 13 4 16 10 6 10 0 64 -100 880
-30 245 -64 522 -75 615 -11 94 -36 298 -55 455 -37 302 -41 365 -25 375 20
12 10 35 -14 35 -53 0 -131 -53 -131 -89 0 -8 -8 -15 -17 -17 -10 -1 -29 -15
-43 -31 -21 -24 -24 -34 -20 -70 6 -39 4 -43 -20 -49 -15 -4 -30 -3 -34 2 -5
5 -16 59 -26 119 -9 61 -21 125 -25 144 -9 34 -1 56 51 139 15 24 6 39 -27 47
-10 2 -57 18 -104 35 -47 17 -143 51 -215 75 -71 24 -222 76 -335 115 -113 40
-216 74 -230 77 -14 3 -29 9 -35 13 -5 4 -57 22 -115 40 -58 18 -109 37 -115
41 -5 4 -28 10 -50 14 -22 4 -50 14 -63 22 -12 7 -27 11 -32 8 -5 -3 -20 1
-32 9 -13 7 -33 17 -45 20 -19 6 -22 3 -25 -30 -2 -22 -9 -39 -18 -42 -13 -4
-13 -3 -2 11 10 12 11 21 3 36 -8 14 -8 20 1 23 6 2 9 10 7 17 -4 11 -7 11
-16 0z m37 -103 c0 -3 -4 -8 -10 -11 -5 -3 -10 -1 -10 4 0 6 5 11 10 11 6 0
10 -2 10 -4z m27 -18 c-3 -8 -6 -5 -6 6 -1 11 2 17 5 13 3 -3 4 -12 1 -19z
m93 -18 c0 -5 -7 -10 -15 -10 -8 0 -15 5 -15 10 0 6 7 10 15 10 8 0 15 -4 15
-10z m-40 -10 c0 -5 -4 -10 -10 -10 -5 0 -10 5 -10 10 0 6 5 10 10 10 6 0 10
-4 10 -10z m-70 -15 c5 3 12 0 16 -6 4 -8 3 -9 -4 -5 -7 4 -12 2 -12 -4 0 -7
-5 -6 -14 2 -8 7 -11 17 -8 23 3 5 7 4 10 -3 2 -7 8 -10 12 -7z m10 -70 c-7
-9 -15 -13 -19 -10 -3 3 1 10 9 15 21 14 24 12 10 -5z m330 11 c0 -3 -4 -8
-10 -11 -5 -3 -10 -1 -10 4 0 6 5 11 10 11 6 0 10 -2 10 -4z m-350 -62 c0 -8
-4 -12 -10 -9 -5 3 -10 10 -10 16 0 5 5 9 10 9 6 0 10 -7 10 -16z m4 -90 c4
-40 -21 -118 -25 -79 -1 11 -1 31 0 43 1 13 -3 30 -9 37 -7 8 -10 22 -7 32 4
14 5 13 6 -5 1 -14 5 -21 12 -16 6 3 8 15 5 27 -3 13 -2 17 5 10 6 -6 12 -28
13 -49z m83 -20 c-3 -3 -12 -4 -19 -1 -8 3 -5 6 6 6 11 1 17 -2 13 -5z m83
-34 c0 -5 -2 -10 -4 -10 -3 0 -8 5 -11 10 -3 6 -1 10 4 10 6 0 11 -4 11 -10z
m-160 -45 c0 -8 -4 -15 -10 -15 -5 0 -7 7 -4 15 4 8 8 15 10 15 2 0 4 -7 4
-15z m30 -63 c0 -21 -5 -28 -20 -28 -11 0 -18 5 -16 11 2 5 9 9 15 8 6 -2 11
6 11 17 0 11 2 20 5 20 3 0 5 -13 5 -28z m-63 -34 c-3 -7 -5 -2 -5 12 0 14 2
19 5 13 2 -7 2 -19 0 -25z m106 5 c-7 -2 -19 -2 -25 0 -7 3 -2 5 12 5 14 0 19
-2 13 -5z m-103 -47 c0 -8 6 -16 12 -18 8 -3 13 -26 13 -65 0 -34 -4 -59 -9
-56 -4 3 -6 30 -4 59 3 30 1 54 -4 54 -4 0 -8 -5 -8 -11 0 -5 -5 -7 -12 -3 -9
6 -9 9 0 12 8 2 9 9 2 23 -7 13 -7 19 0 19 5 0 10 -6 10 -14z m70 -61 c0 -24
-5 -35 -15 -35 -18 0 -20 16 -2 23 9 4 8 8 -3 16 -13 10 -13 12 0 21 21 13 20
14 20 -25z m40 -5 c0 -5 -4 -10 -10 -10 -5 0 -10 5 -10 10 0 6 5 10 10 10 6 0
10 -4 10 -10z m-23 -72 c-3 -8 -6 -5 -6 6 -1 11 2 17 5 13 3 -3 4 -12 1 -19z
m-75 -79 c-3 -37 -2 -50 7 -45 13 8 14 -3 2 -22 -6 -10 -10 -8 -14 10 -10 34
-8 108 2 108 4 0 6 -23 3 -51z m15 -11 c-3 -7 -5 -2 -5 12 0 14 2 19 5 13 2
-7 2 -19 0 -25z m133 16 c0 -2 -7 -4 -15 -4 -8 0 -15 4 -15 10 0 5 7 7 15 4 8
-4 15 -8 15 -10z m110 -9 c0 -8 -7 -15 -15 -15 -9 0 -12 6 -9 15 4 8 10 15 15
15 5 0 9 -7 9 -15z m-123 -81 c-3 -3 -12 -4 -19 -1 -8 3 -5 6 6 6 11 1 17 -2
13 -5z m-127 -169 c6 -19 9 -43 7 -52 -3 -12 -5 -10 -6 8 0 14 -8 34 -16 45
-17 22 -19 34 -6 34 5 0 15 -16 21 -35z m-12 -50 c-3 -3 -9 2 -12 12 -6 14 -5
15 5 6 7 -7 10 -15 7 -18z m112 -44 c0 -17 -18 -21 -24 -6 -3 9 0 15 9 15 8 0
15 -4 15 -9z m10 -61 c0 -5 -4 -10 -10 -10 -5 0 -10 5 -10 10 0 6 5 10 10 10
6 0 10 -4 10 -10z m-113 -37 c0 -16 3 -37 5 -48 3 -11 3 -14 1 -6 -4 11 -7 11
-13 2 -6 -10 -7 41 -1 72 3 17 8 5 8 -20z m136 -10 c-7 -2 -19 -2 -25 0 -7 3
-2 5 12 5 14 0 19 -2 13 -5z m124 -65 c-3 -8 -6 -5 -6 6 -1 11 2 17 5 13 3 -3
4 -12 1 -19z m-240 -190 c-3 -8 -6 -5 -6 6 -1 11 2 17 5 13 3 -3 4 -12 1 -19z
m23 -622 c0 -11 -19 -15 -25 -6 -3 5 1 10 9 10 9 0 16 -2 16 -4z m50 -90 c0
-2 -7 -7 -16 -10 -8 -3 -12 -2 -9 4 6 10 25 14 25 6z"/>
<path d="M696 3225 c-9 -26 -7 -32 5 -12 6 10 9 21 6 23 -2 3 -7 -2 -11 -11z"/>
<path d="M686 2655 c-9 -14 -14 -31 -10 -37 4 -6 13 3 21 22 17 41 11 49 -11
15z"/>
</g>
</svg>
