<svg width="173" height="48" viewBox="0 0 173 48" fill="none" xmlns="http://www.w3.org/2000/svg">
<path d="M25.164 27.654H23.016C26.2335 26.2125 29.262 23.8485 33.039 19.779C33.039 24.1215 29.5065 27.654 25.164 27.654ZM24 0C10.7445 0 0 10.7445 0 24C0 30.2235 2.3895 35.8755 6.2745 40.14C9.156 37.0215 12.855 33.024 15.7635 29.904H12.798C12.798 29.904 29.346 11.9505 31.497 9.798C32.8155 8.4795 34.9515 8.4795 36.27 9.798C36.507 10.035 36.687 10.305 36.8385 10.5855C37.875 10.8225 39.354 10.971 40.164 11.3595C40.9185 11.721 41.0415 12.3315 41.0415 12.3315C39.972 12.4245 38.7225 12.426 37.3275 13.071C36.873 13.281 35.2905 15.7185 35.2905 19.779C35.2905 25.065 31.239 29.3985 26.073 29.8575L23.94 33.3405L27.954 38.1255H25.995L22.2675 33.6825V29.904H19.407L9.33 42.9645C13.389 46.11 18.468 48 24 48C37.2555 48 48 37.2555 48 24C48 10.7445 37.2555 0 24 0ZM35.712 11.253C35.712 10.632 35.208 10.128 34.587 10.128C33.966 10.128 33.462 10.632 33.462 11.253C33.462 11.874 33.966 12.378 34.587 12.378C35.2095 12.378 35.712 11.874 35.712 11.253Z" fill="#037AA9"/>
<path d="M40.1625 11.361C39.3525 10.9725 37.8735 10.824 36.837 10.587C36.6855 10.3065 36.5055 10.0365 36.2685 9.79951C34.95 8.48101 32.814 8.48101 31.4955 9.79951C29.3445 11.9505 12.798 29.904 12.798 29.904H15.765C12.8565 33.024 9.1575 37.0215 6.276 40.14C7.212 41.1675 8.2305 42.1125 9.33 42.9645L19.4055 29.904H22.266V33.6825L25.9935 38.1255H27.951L23.937 33.3405L26.07 29.8575C31.236 29.3985 35.2875 25.0635 35.2875 19.779C35.2875 15.72 36.87 13.2825 37.3245 13.071C38.7195 12.426 39.969 12.4245 41.0385 12.3315C41.04 12.3315 40.917 11.7225 40.1625 11.361ZM23.7675 30.75V30.654H23.826L23.7675 30.75ZM25.164 27.654H23.016C26.2335 26.2125 29.262 23.8485 33.039 19.779C33.039 24.1215 29.5065 27.654 25.164 27.654ZM34.587 12.378C33.966 12.378 33.462 11.874 33.462 11.253C33.462 10.632 33.966 10.128 34.587 10.128C35.208 10.128 35.712 10.632 35.712 11.253C35.712 11.874 35.2095 12.378 34.587 12.378Z" fill="white"/>
<path d="M83.85 13.545V34.605H78.72V21.435L74.16 34.605H69.72L65.13 21.405V34.605H60V13.545H66.27L72 28.215L77.61 13.545H83.85ZM97.05 18.525C97.9695 19.1055 98.649 19.896 99.09 20.895V17.865H104.19V34.605H99.09V31.575C98.6505 32.5755 97.9695 33.3645 97.05 33.945C96.129 34.5255 95.0295 34.815 93.75 34.815C92.37 34.815 91.1355 34.47 90.045 33.78C88.9545 33.09 88.095 32.094 87.465 30.795C86.835 29.496 86.52 27.975 86.52 26.235C86.52 24.4755 86.835 22.95 87.465 21.66C88.095 20.37 88.9545 19.38 90.045 18.69C91.1355 18 92.37 17.655 93.75 17.655C95.0295 17.655 96.129 17.946 97.05 18.525ZM92.745 23.235C92.0745 23.955 91.74 24.9555 91.74 26.235C91.74 27.516 92.0745 28.515 92.745 29.235C93.4155 29.955 94.3005 30.315 95.4 30.315C96.48 30.315 97.365 29.9445 98.055 29.205C98.745 28.4655 99.09 27.4755 99.09 26.235C99.09 24.975 98.745 23.9805 98.055 23.25C97.365 22.5195 96.48 22.155 95.4 22.155C94.299 22.155 93.414 22.515 92.745 23.235ZM117.389 18.525C118.308 19.1055 118.988 19.896 119.429 20.895V17.865H124.527V34.515C124.527 36.075 124.229 37.4805 123.627 38.73C123.027 39.9795 122.106 40.9755 120.867 41.715C119.627 42.4545 118.086 42.825 116.247 42.825C113.727 42.825 111.713 42.2295 110.202 41.04C108.692 39.8505 107.787 38.235 107.487 36.195H112.557C112.716 36.8745 113.082 37.4055 113.65 37.785C114.22 38.1645 114.966 38.355 115.886 38.355C116.946 38.355 117.8 38.049 118.451 37.44C119.102 36.8295 119.425 35.8545 119.425 34.515V31.575C118.984 32.5755 118.305 33.3645 117.386 33.945C116.466 34.5255 115.365 34.815 114.085 34.815C112.705 34.815 111.471 34.47 110.382 33.78C109.291 33.09 108.432 32.094 107.802 30.795C107.172 29.496 106.857 27.975 106.857 26.235C106.857 24.4755 107.172 22.95 107.802 21.66C108.432 20.37 109.291 19.38 110.382 18.69C111.471 18 112.705 17.655 114.085 17.655C115.369 17.655 116.469 17.946 117.389 18.525ZM113.083 23.235C112.415 23.955 112.079 24.9555 112.079 26.235C112.079 27.516 112.415 28.515 113.083 29.235C113.754 29.955 114.639 30.315 115.74 30.315C116.82 30.315 117.705 29.9445 118.395 29.205C119.085 28.4655 119.43 27.4755 119.43 26.235C119.43 24.975 119.085 23.9805 118.395 23.25C117.705 22.5195 116.82 22.155 115.74 22.155C114.639 22.155 113.754 22.515 113.083 23.235ZM142.214 18.69C143.304 19.38 144.163 20.37 144.794 21.66C145.424 22.95 145.738 24.4755 145.738 26.235C145.738 27.975 145.424 29.4945 144.794 30.795C144.163 32.0955 143.304 33.09 142.214 33.78C141.123 34.47 139.888 34.815 138.508 34.815C137.227 34.815 136.128 34.5255 135.208 33.945C134.289 33.3645 133.617 32.5755 133.199 31.575V42.585H128.068V17.865H133.199V20.895C133.617 19.8945 134.289 19.1055 135.208 18.525C136.128 17.946 137.229 17.655 138.508 17.655C139.888 17.655 141.124 18 142.214 18.69ZM134.204 23.25C133.514 23.9805 133.169 24.975 133.169 26.235C133.169 27.4755 133.514 28.4655 134.204 29.205C134.894 29.946 135.778 30.315 136.858 30.315C137.958 30.315 138.843 29.955 139.515 29.235C140.184 28.515 140.52 27.516 140.52 26.235C140.52 24.9555 140.184 23.955 139.515 23.235C138.845 22.515 137.959 22.155 136.858 22.155C135.778 22.155 134.894 22.5195 134.204 23.25ZM148.769 11.22C149.328 10.71 150.067 10.455 150.987 10.455C151.906 10.455 152.646 10.71 153.207 11.22C153.767 11.73 154.047 12.375 154.047 13.155C154.047 13.9155 153.767 14.55 153.207 15.06C152.646 15.57 151.906 15.825 150.987 15.825C150.067 15.825 149.328 15.57 148.769 15.06C148.208 14.55 147.927 13.9155 147.927 13.155C147.928 12.375 148.208 11.73 148.769 11.22ZM153.538 17.865V34.605H148.409V17.865H153.538ZM172.829 27.165H161.218C161.278 28.425 161.598 29.3295 162.179 29.88C162.759 30.4305 163.498 30.705 164.398 30.705C165.158 30.705 165.787 30.516 166.288 30.135C166.788 29.7555 167.118 29.265 167.278 28.665H172.708C172.488 29.8455 172.008 30.9 171.269 31.83C170.528 32.76 169.588 33.4905 168.447 34.02C167.307 34.551 166.038 34.815 164.639 34.815C162.998 34.815 161.544 34.47 160.273 33.78C159.001 33.09 158.007 32.094 157.288 30.795C156.569 29.4945 156.208 27.975 156.208 26.235C156.208 24.4755 156.562 22.95 157.273 21.66C157.983 20.37 158.979 19.38 160.257 18.69C161.538 18 162.998 17.655 164.639 17.655C166.298 17.655 167.757 17.9955 169.019 18.675C170.279 19.356 171.252 20.31 171.942 21.54C172.632 22.77 172.977 24.1845 172.977 25.785C172.979 26.205 172.929 26.6655 172.829 27.165ZM166.903 22.53C166.293 21.9795 165.539 21.705 164.639 21.705C163.698 21.705 162.918 21.9855 162.297 22.545C161.677 23.106 161.328 23.925 161.247 25.005H167.787C167.808 23.9055 167.512 23.0805 166.903 22.53Z" fill="#FFFFFF"/>
</svg>
