<svg id="Sentichat_logo" data-name="Sentichat logo" xmlns="http://www.w3.org/2000/svg" xmlns:xlink="http://www.w3.org/1999/xlink" width="171.546" height="30" viewBox="0 0 171.546 30">
  <defs>
    <clipPath id="clip-path">
      <rect id="Rectangle_2" data-name="Rectangle 2" width="171.546" height="30" fill="none"/>
    </clipPath>
    <clipPath id="clip-path-2">
      <path id="Path_2" data-name="Path 2" d="M389.163,41.364A5.539,5.539,0,0,0,387.3,45.7a5.15,5.15,0,0,0,1.417,3.875,6.8,6.8,0,0,0,3.833,1.653l2.361.347a3.346,3.346,0,0,1,1.778.68,2.207,2.207,0,0,1,.6,1.653,2.127,2.127,0,0,1-.909,1.833,4.425,4.425,0,0,1-2.6.653,6.809,6.809,0,0,1-1.868-.229,10.254,10.254,0,0,1-1.882-.8,3.711,3.711,0,0,0-1.569-.528,1.469,1.469,0,0,0-1.083.431,1.724,1.724,0,0,0-.528,1.264,1.779,1.779,0,0,0,.472,1.285,5.127,5.127,0,0,0,1.5.979,10.126,10.126,0,0,0,2.25.785,13.138,13.138,0,0,0,2.667.229,9.547,9.547,0,0,0,3.743-.694,6.013,6.013,0,0,0,2.625-2.069,6.191,6.191,0,0,0-.548-7.417,6.82,6.82,0,0,0-3.792-1.542l-2.319-.333A3.479,3.479,0,0,1,391.607,47a1.961,1.961,0,0,1-.569-1.514,2.166,2.166,0,0,1,.792-1.7,3.328,3.328,0,0,1,2.25-.687,6.6,6.6,0,0,1,3.125.778,3.315,3.315,0,0,0,1.445.445,1.462,1.462,0,0,0,1.153-.528,1.876,1.876,0,0,0,.445-1.194q0-1.194-1.583-1.931a10.512,10.512,0,0,0-4.472-.958,7.278,7.278,0,0,0-5.028,1.66" transform="translate(-386.843 -39.704)" fill="none"/>
    </clipPath>
    <clipPath id="clip-path-3">
      <path id="Path_3" data-name="Path 3" d="M512.118,82.389a2.376,2.376,0,0,1,.917-1.083,2.994,2.994,0,0,1,3,0,2.464,2.464,0,0,1,.931,1.083,4.356,4.356,0,0,1,.319,1.569H511.8a3.88,3.88,0,0,1,.319-1.569m-2.16-2.528a7.988,7.988,0,0,0-1.715,5.444,10.964,10.964,0,0,0,.375,3.007,6.561,6.561,0,0,0,.986,2.132,5.008,5.008,0,0,0,1.5,1.34,6.171,6.171,0,0,0,1.819.722,9.541,9.541,0,0,0,2.014.2,6.957,6.957,0,0,0,3.944-1q1.417-.945,1.417-1.861a1.444,1.444,0,0,0-.458-1.063,1.4,1.4,0,0,0-1-.451,2.44,2.44,0,0,0-1.347.542,4.06,4.06,0,0,1-2.5.778,3.078,3.078,0,0,1-2.361-.889,3.273,3.273,0,0,1-.833-2.333h6.958q.361,0,.569-.014a1.852,1.852,0,0,0,.507-.125,1.393,1.393,0,0,0,.507-.32,2.12,2.12,0,0,0,.486-1.611,6.95,6.95,0,0,0-1.771-4.646,5.854,5.854,0,0,0-4.521-1.813,5.781,5.781,0,0,0-4.577,1.958" transform="translate(-508.243 -77.903)" fill="none"/>
    </clipPath>
    <clipPath id="clip-path-4">
      <path id="Path_4" data-name="Path 4" d="M627.586,78.3a4.438,4.438,0,0,0-1.632,1.132,2.035,2.035,0,0,0-.542-1.056,1.617,1.617,0,0,0-1.153-.417,1.938,1.938,0,0,0-.937.229,1.441,1.441,0,0,0-.618.6,1.894,1.894,0,0,0-.215.611,7.259,7.259,0,0,0-.049,1.014v9.764a3.9,3.9,0,0,0,.236,1.611,1.861,1.861,0,0,0,3.139,0,3.91,3.91,0,0,0,.236-1.611V83.792a2.509,2.509,0,0,1,.715-1.979,2.483,2.483,0,0,1,1.7-.632,2.433,2.433,0,0,1,1.687.632,2.537,2.537,0,0,1,.7,1.979v6.389a3.91,3.91,0,0,0,.236,1.611,1.861,1.861,0,0,0,3.139,0,3.911,3.911,0,0,0,.236-1.611V83.292A7.388,7.388,0,0,0,634.142,81,4.57,4.57,0,0,0,633,79.181a4.617,4.617,0,0,0-3.417-1.278,5.205,5.205,0,0,0-1.993.4" transform="translate(-622.44 -77.903)" fill="none"/>
    </clipPath>
    <clipPath id="clip-path-5">
      <path id="Path_5" data-name="Path 5" d="M728.526,51.265a3.908,3.908,0,0,0-.236,1.611v1.931h-.361a2.826,2.826,0,0,0-1.222.194,1.4,1.4,0,0,0,0,2.389,2.82,2.82,0,0,0,1.222.194h.361v7.139a4.926,4.926,0,0,0,.236,1.542,4.007,4.007,0,0,0,.722,1.313,3.332,3.332,0,0,0,1.313.938,4.9,4.9,0,0,0,1.91.347h.195a3.383,3.383,0,0,0,1.486-.25,1.334,1.334,0,0,0,.722-1.292,1.317,1.317,0,0,0-.722-1.292,2.9,2.9,0,0,0-1.083-.222,1.122,1.122,0,0,1-1.167-1.278V57.584h1.083a2.82,2.82,0,0,0,1.222-.194,1.4,1.4,0,0,0,0-2.389,2.826,2.826,0,0,0-1.222-.194H731.9V52.876a3.911,3.911,0,0,0-.236-1.611,1.861,1.861,0,0,0-3.139,0" transform="translate(-726.04 -50.404)" fill="none"/>
    </clipPath>
    <clipPath id="clip-path-6">
      <path id="Path_6" data-name="Path 6" d="M808.754,42.123a3.906,3.906,0,0,0-.236,1.611v9.333a3.9,3.9,0,0,0,.236,1.611,1.861,1.861,0,0,0,3.139,0,3.908,3.908,0,0,0,.236-1.611V43.734a3.911,3.911,0,0,0-.236-1.611,1.861,1.861,0,0,0-3.139,0m.1-6.708a2.079,2.079,0,1,0,1.472-.611,2.007,2.007,0,0,0-1.472.611" transform="translate(-808.24 -34.804)" fill="none"/>
    </clipPath>
    <clipPath id="clip-path-7">
      <path id="Path_7" data-name="Path 7" d="M864.833,78.1a6.139,6.139,0,0,0-1.736.722,5.522,5.522,0,0,0-1.514,1.326,6.4,6.4,0,0,0-1.042,2.125,11.48,11.48,0,0,0,0,6.028,6.58,6.58,0,0,0,1.035,2.132,5.482,5.482,0,0,0,1.507,1.34,6.049,6.049,0,0,0,1.729.729,7.773,7.773,0,0,0,1.785.2,5.893,5.893,0,0,0,2.861-.694q1.75-.958,1.75-2.055a1.624,1.624,0,0,0-.514-1.181,1.471,1.471,0,0,0-1.111-.486,2.2,2.2,0,0,0-1.25.528,2.9,2.9,0,0,1-1.736.611,2.515,2.515,0,0,1-2.042-.945,5.086,5.086,0,0,1-.806-3.194,5.032,5.032,0,0,1,.806-3.167,2.6,2.6,0,0,1,2.042-.945,2.981,2.981,0,0,1,1.736.625,2.172,2.172,0,0,0,1.25.5,1.463,1.463,0,0,0,1.111-.472,1.687,1.687,0,0,0,.514-1.181q0-1.152-1.75-2.042a5.5,5.5,0,0,0-2.833-.708,7.856,7.856,0,0,0-1.792.2" transform="translate(-860.139 -77.903)" fill="none"/>
    </clipPath>
    <clipPath id="clip-path-8">
      <path id="Path_8" data-name="Path 8" d="M961.672,40.963a3.907,3.907,0,0,0-.236,1.611V57.63a3.906,3.906,0,0,0,.236,1.611,1.861,1.861,0,0,0,3.139,0,3.911,3.911,0,0,0,.236-1.611V51.241a2.509,2.509,0,0,1,.715-1.979,2.483,2.483,0,0,1,1.7-.632,2.434,2.434,0,0,1,1.688.632,2.538,2.538,0,0,1,.7,1.979V57.63a3.907,3.907,0,0,0,.236,1.611,1.861,1.861,0,0,0,3.139,0,3.907,3.907,0,0,0,.236-1.611V50.741a7.386,7.386,0,0,0-.326-2.292,4.57,4.57,0,0,0-1.146-1.819,4.617,4.617,0,0,0-3.417-1.278,4.739,4.739,0,0,0-3.528,1.5V42.574a3.912,3.912,0,0,0-.236-1.611,1.86,1.86,0,0,0-3.139,0" transform="translate(-961.436 -40.102)" fill="none"/>
    </clipPath>
    <clipPath id="clip-path-9">
      <path id="Path_9" data-name="Path 9" d="M1072.356,89.306a1.447,1.447,0,0,1-.549-1.208q0-1.667,2.139-1.667h2.75v.778a4.284,4.284,0,0,1-.118,1.132,1.5,1.5,0,0,1-.438.7,2.187,2.187,0,0,1-.917.556,4.534,4.534,0,0,1-1.222.139,2.637,2.637,0,0,1-1.646-.43m-1.8-10.569q-1.347.709-1.347,1.722a1.655,1.655,0,0,0,.4,1.083,1.25,1.25,0,0,0,1.028.486,2.383,2.383,0,0,0,1.194-.375,4.507,4.507,0,0,1,2.319-.694,2.844,2.844,0,0,1,1.917.548,2.186,2.186,0,0,1,.625,1.729v.722h-3.361a5.3,5.3,0,0,0-3.722,1.181,3.922,3.922,0,0,0-1.278,3.014,4.39,4.39,0,0,0,1.195,3.25,4.938,4.938,0,0,0,3.694,1.306,5.335,5.335,0,0,0,1.993-.319,5.036,5.036,0,0,0,1.59-1.111,1.951,1.951,0,0,0,.528.958,1.617,1.617,0,0,0,1.153.417,1.938,1.938,0,0,0,.938-.229,1.444,1.444,0,0,0,.618-.6,1.9,1.9,0,0,0,.215-.611,7.317,7.317,0,0,0,.049-1.014V83.014a4.707,4.707,0,0,0-1.535-3.826,6.965,6.965,0,0,0-4.562-1.285,7.73,7.73,0,0,0-3.653.833" transform="translate(-1068.335 -77.903)" fill="none"/>
    </clipPath>
    <clipPath id="clip-path-10">
      <path id="Path_10" data-name="Path 10" d="M1174.018,51.265a3.906,3.906,0,0,0-.236,1.611v1.931h-.361A2.825,2.825,0,0,0,1172.2,55a1.4,1.4,0,0,0,0,2.389,2.819,2.819,0,0,0,1.222.194h.361v7.139a4.92,4.92,0,0,0,.236,1.542,4,4,0,0,0,.722,1.313,3.33,3.33,0,0,0,1.313.938,4.9,4.9,0,0,0,1.91.347h.194a3.384,3.384,0,0,0,1.486-.25,1.334,1.334,0,0,0,.722-1.292,1.317,1.317,0,0,0-.722-1.292,2.9,2.9,0,0,0-1.083-.222,1.122,1.122,0,0,1-1.167-1.278V57.584h1.083a2.821,2.821,0,0,0,1.222-.194,1.4,1.4,0,0,0,0-2.389,2.827,2.827,0,0,0-1.222-.194h-1.083V52.876a3.909,3.909,0,0,0-.236-1.611,1.861,1.861,0,0,0-3.139,0" transform="translate(-1171.532 -50.404)" fill="none"/>
    </clipPath>
  </defs>
  <g id="Group_2" data-name="Group 2">
    <g id="Group_1" data-name="Group 1" clip-path="url(#clip-path)">
      <path id="Path_1" data-name="Path 1" d="M45,15A15,15,0,0,0,30,0L15,.069a14.931,14.931,0,1,0,0,29.861L30,30H45.069ZM22.535,22.188a8.482,8.482,0,0,1-8.472-8.472,1.389,1.389,0,1,1,2.778,0,5.694,5.694,0,1,0,11.389,0,1.389,1.389,0,1,1,2.778,0,8.482,8.482,0,0,1-8.472,8.472" fill="#1ad079"/>
    </g>
  </g>
</svg>
